<svg version="1.1" id="plane_1" x="0px" y="0px" width="163.5px" height="129.83px" viewBox="0 0 163.5 129.83" enable-background="new 0 0 163.5 129.83" xml:space="preserve" xmlns:xml="http://www.w3.org/XML/1998/namespace" xmlns="http://www.w3.org/2000/svg" xmlns:xlink="http://www.w3.org/1999/xlink" style="transform: rotate(0deg) scale(1, 1); opacity: 1; position: absolute; backface-visibility: hidden; left: 37.884px; top: 33.6849px; width: 145.154px; height: 115.061px; overflow: visible;"><defs class="defs"></defs>
  <path fill="#D86411" d="M121.288,104.226c-1.103,0.909-2.455,1.397-3.836,1.432c-0.818,0.018-1.641-0.123-2.422-0.432
	c-0.949-0.375-1.746-0.998-2.394-1.734c-6.329,8.229-15.283,14.301-25.632,16.982c5.771-4.019,10.543-10.945,13.742-19.701h10.522
	c-0.04-0.187-0.121-0.353-0.144-0.539l-0.549-4.178h-8.313c1.623-5.771,2.592-12.174,2.774-18.98h3.037l-0.621-4.717h-2.416
	c-0.086-3.158-0.361-6.224-0.765-9.181c-1.503,0.419-3.063,0.832-4.61,1.245c0.336,2.578,0.582,5.21,0.662,7.936H83.711
	l-0.957,4.717h17.57c-0.199,6.834-1.232,13.285-2.966,18.98H77.497V85.633l-2.416,1.688c-0.701,0.496-1.49,0.771-2.301,0.938v7.796
	H52.918c-0.848-2.789-1.524-5.769-2.021-8.878c-0.516,0.21-1.046,0.421-1.552,0.636c-1.012,0.432-1.914,0.858-2.875,1.289
	c0.422,2.391,0.92,4.729,1.54,6.953H32.945v-0.005c-1.357,0.828-2.652,1.654-3.852,2.494c-0.948,0.668-1.811,1.324-2.627,1.976
	c9.272,17.414,27.602,29.311,48.67,29.311c19.759,0,37.065-10.484,46.796-26.146L121.288,104.226z M35.658,100.771h13.871
	c3.205,8.756,7.97,15.685,13.741,19.701C51.807,117.506,42.022,110.39,35.658,100.771z M72.78,119.463
	c-7.493-1.244-14.028-8.34-18.18-18.69h18.18V119.463z M77.497,100.771h18.179c-4.146,10.347-10.689,17.447-18.179,18.691V100.771z
	 M88.558,24.529l-2.601-3.857c-3.512-0.699-7.118-1.08-10.827-1.08c-27.521,0-50.331,20.298-54.403,46.697
	c3.388-2.556,6.677-4.802,9.689-6.757c0.714-2.116,1.522-4.192,2.524-6.163h7.59c2.735-1.576,5.546-3.151,8.502-4.717H35.654
	c6.36-9.617,16.148-16.732,27.614-19.7c-3.072,2.142-5.851,5.127-8.272,8.757c0.38-0.121,0.759-0.251,1.166-0.295l5.414-0.631
	c0.033-0.002,0.071,0,0.101-0.002c3.274-3.699,7.037-6.146,11.1-6.816v13.111l3.116,2.356c0.545-0.292,1.061-0.549,1.601-0.84
	V29.965c4.579,0.759,8.799,3.73,12.342,8.27l6.109-2.904L88.558,24.529z" class="color c1"></path>
  <path fill="#EE8133" d="M163.5,25.278c-7.709-5.069-23.828-1.492-41.711,5.408L90.37,0L79.785,0.363l25.258,37.45
	c-10.392,4.779-20.686,10.097-29.71,15.012l-13.037-9.846l-5.414,0.631l13.463,16.961l1.16,21.628l4.471-3.121l3.236-16.01
	c10.016-2.293,21.255-5.134,32.203-8.438l5.891,44.781l8.167-6.744l3.192-43.795C146.645,42.183,161.084,34.18,163.5,25.278z
	 M64.229,62.893l-8.485-10.688c-5.765,2.955-12.2,6.456-18.925,10.646c-7.511,4.721-15.396,10.169-22.626,17.115
	c-3.59,3.499-7.04,7.387-9.839,12.076c-1.383,2.35-2.583,4.92-3.409,7.701c-0.222,0.682-0.371,1.414-0.54,2.125
	c-0.091,0.354-0.134,0.725-0.201,1.088l-0.197,1.313L0,105.875l0.045,2.367c0.206,2.85,0.967,5.883,2.48,8.528
	c1.478,2.668,3.697,4.72,5.904,6.035c4.49,2.631,8.701,3.062,12.327,3.275c7.281,0.223,12.869-0.965,16.778-1.74
	c1.219-0.26,2.243-0.494,3.111-0.697c-11.347-0.596-18.415-3.317-22.211-5.379c-1.085-0.549-2.091-1.168-2.948-1.885
	c-0.396-0.307-0.612-0.508-0.612-0.508l0.073-0.006c-0.233-0.221-0.506-0.43-0.702-0.668c-1.71-2.043-1.754-3.898-1.148-6.563
	c0.104-0.272,0.195-0.522,0.27-0.78l0.462-1.543l0.016-0.043c0.042-0.242-0.043,0.271-0.031,0.205l0.024-0.056l0.043-0.121
	l0.085-0.233c0.064-0.152,0.099-0.308,0.178-0.467c0.152-0.314,0.257-0.63,0.44-0.947c0.64-1.279,1.516-2.582,2.601-3.875
	c2.175-2.592,5.118-5.074,8.343-7.342c6.507-4.535,14.104-8.25,21.391-11.355c6.338-2.69,12.457-4.869,17.979-6.702L64.229,62.893z" class="color c2"></path>
</svg>